<?xml version="1.0" encoding="utf-8"?>
<!-- Generator: Adobe Illustrator 16.2.0, SVG Export Plug-In . SVG Version: 6.00 Build 0)  -->
<!DOCTYPE svg PUBLIC "-//W3C//DTD SVG 1.1//EN" "http://www.w3.org/Graphics/SVG/1.1/DTD/svg11.dtd">
<svg version="1.1" id="Layer_1" xmlns="http://www.w3.org/2000/svg" xmlns:xlink="http://www.w3.org/1999/xlink" x="0px" y="0px"
	 width="67px" height="40px" viewBox="0 0 67 40" enable-background="new 0 0 67 40" xml:space="preserve">
<path fill-rule="evenodd" clip-rule="evenodd" d="M62.732,32.971h-0.838c-0.017-0.689-0.114-1.357-0.281-2h1.119
	c1.161,0,1.75-0.588,1.75-1.75v-4.635c-0.013-0.744-0.491-1.047-1.581-1.555c-0.226-0.105-0.444-0.545-0.646-0.652
	c-1.13-0.607-4.896-3.081-6.018-4.034c-0.598-0.507-2.458-2.546-3.11-4.13c-0.268-0.651-1.486-2.76-2.664-4.8
	c-1.253-2.169-2.549-4.413-3.145-5.646C46.465,2,46.032,2,44.987,2L44.72,2L33.832,2L22.99,30.971h20.297
	c-0.167,0.643-0.265,1.311-0.281,2H21.553c-0.327,0-0.634-0.16-0.82-0.428c-0.188-0.27-0.23-0.613-0.117-0.92L32.198,0.652
	C32.344,0.26,32.718,0,33.136,0l11.719,0l0.133,0c1.549,0,2.836,0.213,4.133,2.899c0.563,1.167,1.841,3.378,3.076,5.516
	c1.321,2.288,2.463,4.264,2.781,5.039c0.488,1.187,2.108,2.988,2.557,3.369c1.003,0.854,4.656,3.588,5.668,4.131
	c0.17,0.09,0.355,0.178,0.546,0.266c1.075,0.502,2.7,1.262,2.734,3.352v4.65C66.482,31.498,65.01,32.971,62.732,32.971z M1,6.915
	c-0.553,0-1-0.448-1-1c0-0.553,0.447-1,1-1h26.918l-0.77,2H1z M3.059,12.915h21.167l-0.77,2H3.059c-0.552,0-1-0.448-1-1
	C2.059,13.362,2.507,12.915,3.059,12.915z M5.117,20.854h15.44l-0.77,2H5.117c-0.552,0-1-0.447-1-1S4.565,20.854,5.117,20.854z
	 M33.388,20.346c0,0.848-0.688,1.537-1.536,1.537c-0.85,0-1.537-0.689-1.537-1.537c0-0.85,0.688-1.538,1.537-1.538
	C32.7,18.808,33.388,19.496,33.388,20.346z M35.372,4.57c0.141-0.4,0.519-0.667,0.942-0.667h7.954c0.375,0,0.719,0.209,0.891,0.543
	l5.143,10.015c0.16,0.313,0.146,0.685-0.039,0.982c-0.182,0.295-0.504,0.475-0.85,0.475c-0.004,0-0.008,0-0.011,0l-16.563,0.027
	c-0.322-0.003-0.624-0.162-0.81-0.426c-0.185-0.265-0.23-0.602-0.123-0.906L35.372,4.57z M47.766,13.901l-4.106-7.998h-6.637
	l-2.766,8.057L47.766,13.901z M52.804,25.727c3.718,0,6.73,3.014,6.73,6.73s-3.013,6.73-6.73,6.73c-3.717,0-6.73-3.014-6.73-6.73
	S49.087,25.727,52.804,25.727z M52.802,36.82c2.409,0,4.362-1.953,4.362-4.361c0-2.41-1.953-4.363-4.362-4.363
	s-4.362,1.953-4.362,4.363C48.439,34.867,50.393,36.82,52.802,36.82z"/>
</svg>
