<?xml version="1.0" encoding="utf-8"?>
<!-- Generator: Adobe Illustrator 16.2.0, SVG Export Plug-In . SVG Version: 6.00 Build 0)  -->
<!DOCTYPE svg PUBLIC "-//W3C//DTD SVG 1.1//EN" "http://www.w3.org/Graphics/SVG/1.1/DTD/svg11.dtd">
<svg version="1.1" id="Layer_1" xmlns="http://www.w3.org/2000/svg" xmlns:xlink="http://www.w3.org/1999/xlink" x="0px" y="0px"
	 width="42px" height="40px" viewBox="0 0 42 40" enable-background="new 0 0 42 40" xml:space="preserve">
<path fill-rule="evenodd" clip-rule="evenodd" d="M36.355,15.074l0.101,6.09l-0.998,0.135l-1.001-0.012l-0.099-5.945
	c-1.002-0.003-1.976-0.21-2.88-0.586c-0.399,0.287-0.886,0.461-1.416,0.461c-1.343,0-2.433-1.09-2.433-2.433
	c0-1.346,1.09-2.436,2.433-2.436c1.345,0,2.435,1.09,2.435,2.436c0,0.072-0.015,0.141-0.021,0.212
	c0.588,0.215,1.21,0.336,1.85,0.343l-0.063-3.76c-0.002-0.022-0.003-0.044-0.003-0.066c-0.004-0.37-0.149-0.718-0.41-0.979
	c-0.286-0.287-0.681-0.378-1.085-0.414L21.52,8.313c-0.032,0.004-0.065,0.006-0.097,0.007c-0.699,0.015-1.355,0.295-1.849,0.789
	L2.286,26.398C2.102,26.582,2,26.828,2,27.088c0,0.031,0.016,0.061,0.018,0.09c1.308,0.947,6.939,4.74,13.26,4.74
	c1.136,0,2.248-0.123,3.307-0.367l1.398-0.322l-0.211,1.42c-0.12,0.809-0.21,2.814,0.401,4.143l13.431-13.432
	c0.02-0.023,0.04-0.047,0.062-0.068c0.507-0.506,0.788-1.178,0.794-1.893l0.999-0.1l0.999-0.029c0.001,0.018,0.002,0.133,0.002,0.15
	c-0.01,1.211-0.479,2.354-1.32,3.225c-0.021,0.025-0.043,0.051-0.065,0.074L20.62,39.172c0,0-0.019-0.002-0.021-0.004
	C20.199,39.605,19.501,40,18.27,40c-3.453,0-9.582-3.035-15.456-8.869l-0.009-0.006l-1.933-1.932
	c-0.191-0.191-0.343-0.412-0.474-0.641c-0.004-0.006-0.009-0.012-0.014-0.016c-0.217-0.266-0.277-0.514-0.283-0.717
	C0.042,27.582,0,27.34,0,27.088c0-0.795,0.31-1.543,0.872-2.105L18.12,7.736c0.874-0.877,1.981-1.363,3.163-1.412
	c0.038-0.006,0.075-0.009,0.112-0.01l11.418-0.195c0.048-0.001,0.098,0.003,0.146,0.009c0.888,0.031,1.692,0.381,2.305,0.993
	c0.615,0.616,0.967,1.43,0.994,2.3c0.002,0.022,0.003,0.044,0.004,0.066l0.059,3.489c2.108-0.791,3.62-2.812,3.62-5.193
	c0-3.066-2.494-5.561-5.561-5.561c-1.164,0-2.278,0.355-3.224,1.028c-0.451,0.32-1.074,0.214-1.395-0.234
	c-0.32-0.449-0.216-1.074,0.234-1.395c1.285-0.916,2.801-1.399,4.384-1.399c4.169,0,7.561,3.392,7.561,7.561
	C41.94,11.268,39.567,14.202,36.355,15.074z M17.726,33.699c-0.801,0.115-1.62,0.176-2.448,0.176c-3.223,0-6.231-0.863-8.682-1.898
	c5.07,4.344,9.591,6.068,11.674,6.068c0.123,0,0.229-0.006,0.324-0.016C17.808,36.658,17.69,34.9,17.726,33.699z"/>
<g>
	<g>
		<path d="M14.963,29.793l-0.846-0.809l-1.396,1.461l-1.33-1.273l1.605-1.678l-0.729-0.932l-2.857,2.986l4.396,3.641l1.75-0.033
			l-1.988-1.902L14.963,29.793z M18.12,23.496c-1.041-0.996-2.195-0.758-3.496,0.602l-1.57,1.641l5.012,4.795l1.134-1.188
			l-1.915-1.832l0.441-0.463l2.899,0.807l1.278-1.338l-3.35-0.77C18.872,24.811,18.779,24.125,18.12,23.496z M16.943,26.232
			l-0.477,0.5l-1.447-1.385l0.408-0.426c0.561-0.586,1.04-0.668,1.524-0.203C17.479,25.223,17.441,25.713,16.943,26.232z
			 M22.89,23.781l-1.28-1.225l1.474-1.541l-0.832-0.795l-1.474,1.541l-1.199-1.148l1.687-1.766l-0.729-0.931l-2.938,3.074
			l5.01,4.793l2.94-3.074l-0.854-0.816L22.89,23.781z M28.607,17.802l-1.804,1.887l-1.281-1.225l1.474-1.541l-0.832-0.795
			l-1.473,1.539l-1.201-1.146l1.688-1.765l-0.728-0.933l-2.939,3.073l5.012,4.793l2.939-3.072L28.607,17.802z"/>
	</g>
</g>
</svg>
