<?xml version="1.0" encoding="utf-8"?>
<!-- Generator: Adobe Illustrator 16.2.0, SVG Export Plug-In . SVG Version: 6.00 Build 0)  -->
<!DOCTYPE svg PUBLIC "-//W3C//DTD SVG 1.1//EN" "http://www.w3.org/Graphics/SVG/1.1/DTD/svg11.dtd">
<svg version="1.1" id="Layer_1" xmlns="http://www.w3.org/2000/svg" xmlns:xlink="http://www.w3.org/1999/xlink" x="0px" y="0px"
	 width="56px" height="48px" viewBox="0 0 56 48" enable-background="new 0 0 56 48" xml:space="preserve">
<path fill-rule="evenodd" clip-rule="evenodd" d="M55.1,23.37c-1.105,0.11-1.748,0.464-2.311,1c0.678,0.403,1.273,1.014,1.719,1.904
	c0.873,1.747,0.135,2.837-0.223,3.224c-0.543,0.588-1.381,0.907-2.238,0.907c-0.422,0-0.85-0.077-1.25-0.239
	c-1.016-0.411-1.609-1.283-1.586-2.333c0.02-0.825,0.121-1.521,0.322-2.144c-0.781,0.066-1.715,0.287-2.801,0.643
	c0.561,7.049-3.262,12.784-7.234,17.56c-0.27,0.322-0.539,0.674-0.813,1.028c-0.945,1.225-1.922,2.49-3.053,2.976l-0.189,0.081
	h-7.172l0.031-1.03c0.016-0.498,0.073-0.938,0.129-1.363c0.031-0.234,0.061-0.464,0.083-0.696c-0.152,0.009-0.308,0.018-0.466,0.026
	c-1.215,0.069-2.592,0.147-3.952,0.147c-1.032,0-1.932-0.045-2.727-0.138c-0.053,0.116-0.105,0.236-0.159,0.359
	c-0.419,0.961-0.941,2.156-2.279,2.636l-0.163,0.059h-7.21l0.105-1.096c0.131-1.362,0.252-2.624,0.24-4.021
	c-1.552-1.062-3.359-2.503-4.69-4.546c-5.061-0.156-6.413-4.086-7.062-7.932l-0.014-0.166l0.03-1.06
	c0.361-1.429,1.532-1.693,2.306-1.868c0.32-0.072,0.623-0.141,0.841-0.267c0.842-0.485,1.09-1.248,1.456-2.555
	c0.155-0.556,0.315-1.129,0.562-1.729c0.344-0.838,0.81-1.458,1.221-2.005c0.048-0.063,0.096-0.127,0.143-0.19
	c-1.481-0.933-3.12-2.419-3.737-4.99l-0.167-0.693l0.601-0.383c2.106-1.344,5.052-2.055,8.517-2.055
	c0.458,0,0.919,0.013,1.382,0.036c0.316,0.017,0.649,0.073,0.986,0.133c0.396,0.071,0.755,0.14,1.066,0.105
	c0.493-0.054,1.106-0.268,1.757-0.495c0.328-0.114,0.665-0.227,1.006-0.331c-0.646-1.152-1.019-2.478-1.019-3.89
	c0-4.4,3.58-7.98,7.98-7.98c4.4,0,7.98,3.58,7.98,7.98c0,1.305-0.32,2.533-0.878,3.622c6.065,1.443,10.56,4.683,13.368,9.749
	l0.066,0.149l0.582,1.63c0.105,0.399,0.182,0.791,0.258,1.183c1.119-0.354,2.701-0.742,4.23-0.596
	c0.908-1.077,2.01-2.116,4.225-2.338c0.563-0.041,1.039,0.347,1.094,0.896C56.049,22.825,55.648,23.315,55.1,23.37z M25.069,2
	c-3.298,0-5.98,2.683-5.98,5.98s2.683,5.98,5.98,5.98s5.98-2.683,5.98-5.98S28.367,2,25.069,2z M44.279,23.72l-0.527-1.468
	c-2.684-4.794-6.918-7.699-12.811-8.887c-0.419,0.457-0.885,0.871-1.4,1.221c0.971,0.073,1.512,0.295,1.992,0.394
	c0.541,0.11,0.869,0.666,0.742,1.203s-0.668,0.871-1.203,0.742c-0.525-0.124-1.77-0.378-2.342-0.458
	c-2.711-0.381-5.674-0.249-8.125,0.362c-0.24,0.06-1.003,0.184-1.234,0.253c-0.096,0.029-0.194,0.043-0.29,0.043
	c-0.429,0-0.826-0.278-0.957-0.711c-0.16-0.528,0.139-1.087,0.668-1.246c0.26-0.079,1.055-0.211,1.327-0.279
	c0.235-0.059,0.495-0.091,0.738-0.142c-0.528-0.33-1.018-0.714-1.455-1.153c-0.04,0.009-0.08,0.014-0.12,0.023
	c-0.492,0.113-1.017,0.296-1.524,0.473c-0.727,0.254-1.479,0.516-2.198,0.595c-0.563,0.061-1.143-0.037-1.632-0.125
	c-0.253-0.045-0.502-0.092-0.739-0.104c-0.429-0.022-0.855-0.034-1.279-0.034c-2.728,0-5.057,0.472-6.793,1.368
	c0.545,1.462,1.642,2.57,3.469,3.533l0.907,0.478l-0.5,0.895c-0.26,0.467-0.556,0.86-0.841,1.24
	c-0.372,0.494-0.723,0.962-0.969,1.562c-0.202,0.492-0.346,1.009-0.486,1.509c-0.372,1.328-0.792,2.833-2.384,3.749
	c-0.481,0.277-0.99,0.393-1.398,0.484c-0.598,0.136-0.726,0.195-0.777,0.31v0.583c0.656,3.822,1.797,6.188,5.392,6.188l0.807-0.018
	l0.298,0.51c1.262,2.155,3.234,3.631,4.811,4.675l0.431,0.285l0.017,0.517c0.042,1.325-0.034,2.532-0.135,3.688h4.633
	c0.415-0.221,0.653-0.727,0.988-1.494c0.168-0.386,0.343-0.785,0.573-1.166l0.351-0.581l0.669,0.112
	c0.854,0.144,1.876,0.213,3.125,0.213c1.303,0,2.65-0.077,3.839-0.145c0.555-0.031,1.079-0.062,1.558-0.081l0.981-0.041l0.059,0.98
	c0.048,0.801-0.037,1.445-0.118,2.069c-0.006,0.044-0.012,0.088-0.018,0.133h4.604c0.629-0.372,1.406-1.381,2.1-2.278
	c0.289-0.374,0.574-0.745,0.859-1.086C42.408,37.268,46.252,31.28,44.279,23.72z M51.563,25.974
	c-0.211,0.469-0.332,1.049-0.352,1.905c-0.002,0.103-0.006,0.295,0.336,0.434c0.424,0.17,1.027,0.089,1.27-0.171
	c0.219-0.238,0.033-0.712-0.098-0.973C52.443,26.619,52.064,26.222,51.563,25.974z M11.528,28.13c-1.707,0-3.096-1.39-3.096-3.097
	s1.389-3.096,3.096-3.096s3.096,1.389,3.096,3.096S13.235,28.13,11.528,28.13z M11.528,23.938c-0.604,0-1.096,0.491-1.096,1.096
	s0.492,1.097,1.096,1.097c0.604,0,1.096-0.492,1.096-1.097S12.132,23.938,11.528,23.938z M27.549,9.513
	c0,0.961-0.606,1.807-1.937,2.006v1h-0.535v-0.003h-0.486v-0.962c-1.026-0.079-1.792-0.487-2.32-1.035l0.657-0.906
	c0.368,0.408,0.946,0.786,1.663,0.896V8.576c-1.026-0.259-2.102-0.627-2.102-1.922c0-1.016,0.817-1.822,2.102-1.932v-1.03h0.797
	v0.024h0.224v1.058c0.706,0.121,1.31,0.414,1.777,0.864l-0.657,0.866c-0.32-0.319-0.712-0.527-1.12-0.646v1.724
	C26.581,7.853,27.549,8.274,27.549,9.513z M25.613,10.471c0.523-0.148,0.742-0.506,0.742-0.849c0-0.384-0.309-0.6-0.742-0.76V10.471
	z M24.592,5.748c-0.558,0.07-0.906,0.379-0.906,0.816c0,0.389,0.378,0.588,0.906,0.747V5.748z"/>
</svg>
