<?xml version="1.0" encoding="utf-8"?>
<!-- Generator: Adobe Illustrator 16.2.0, SVG Export Plug-In . SVG Version: 6.00 Build 0)  -->
<!DOCTYPE svg PUBLIC "-//W3C//DTD SVG 1.1//EN" "http://www.w3.org/Graphics/SVG/1.1/DTD/svg11.dtd">
<svg version="1.1" id="Layer_1" xmlns="http://www.w3.org/2000/svg" xmlns:xlink="http://www.w3.org/1999/xlink" x="0px" y="0px"
	 width="53px" height="38px" viewBox="0 0 53 38" enable-background="new 0 0 53 38" xml:space="preserve">
<path fill-rule="evenodd" clip-rule="evenodd" d="M52,13.034h-3.243l-5.027,24.181C43.629,37.674,43.223,38,42.753,38H10.414
	c-0.463,0-0.866-0.318-0.973-0.77L4.023,13.034h-2.99c-0.552,0-1-0.447-1-1s0.448-1,1-1h11.943l9.951-10.566
	c0.379-0.402,1.011-0.422,1.413-0.042c0.402,0.378,0.421,1.011,0.042,1.413l-8.66,9.195h22.19l-8.659-9.195
	c-0.379-0.402-0.36-1.035,0.042-1.413c0.402-0.38,1.034-0.36,1.413,0.042l9.951,10.566H52c0.553,0,1,0.447,1,1
	S52.553,13.034,52,13.034z M6.072,13.034L11.204,36h30.745l4.766-22.966H6.072z M37.544,31.066c-0.552,0.002-1-0.445-1.001-0.998
	l-0.025-11.946c-0.001-0.553,0.445-1.001,0.998-1.001c0.552-0.002,1,0.445,1.001,0.998l0.025,11.947
	c0.001,0.287-0.119,0.545-0.313,0.729C38.05,30.963,37.81,31.066,37.544,31.066z M30.544,31.066c-0.552,0.002-1-0.445-1.001-0.998
	l-0.025-11.946c-0.001-0.553,0.445-1.001,0.998-1.001c0.553-0.002,1,0.445,1.001,0.998l0.025,11.947
	c0.001,0.287-0.12,0.545-0.313,0.729C31.051,30.963,30.81,31.066,30.544,31.066z M23.544,31.066c-0.552,0.002-1-0.445-1.001-0.998
	l-0.025-11.946c-0.001-0.553,0.445-1.001,0.998-1.001c0.552-0.002,1,0.445,1.001,0.998l0.025,11.947
	c0.001,0.287-0.12,0.545-0.313,0.729C24.05,30.963,23.81,31.066,23.544,31.066z M16.544,31.066c-0.552,0.002-1-0.445-1.001-0.998
	l-0.025-11.946c-0.001-0.553,0.445-1.001,0.998-1.001c0.552-0.002,1,0.445,1.001,0.998l0.025,11.947
	c0.001,0.287-0.12,0.545-0.313,0.729C17.05,30.963,16.81,31.066,16.544,31.066z"/>
</svg>
